<svg xmlns="http://www.w3.org/2000/svg" width="34.885" height="30.613" viewBox="0 0 34.885 30.613"><defs><style>.a{fill:#fff;}</style></defs><g transform="translate(-1 -7)"><path class="a" d="M2.346,34.356h8.835a5.3,5.3,0,0,1,3.948,1.78l.125.135a4.453,4.453,0,0,0,.516.456c.075.057.15.107.217.153a4.335,4.335,0,0,0,.5.288l.1.046a2.533,2.533,0,0,0,.285.121,3.536,3.536,0,0,0,.374.117c.089.025.2.057.335.082a4.346,4.346,0,0,0,.587.075l.274,0a4.467,4.467,0,0,0,.876-.089c.114-.021.21-.05.26-.064a3.756,3.756,0,0,0,.413-.128l.068-.025.224-.1.082-.039h0a4.428,4.428,0,0,0,.534-.306l.182-.128a4.517,4.517,0,0,0,.577-.513l.032-.032.071-.078a5.194,5.194,0,0,1,3.916-1.748h8.864a1.346,1.346,0,0,0,1.346-1.356V11.887a1.346,1.346,0,0,0-1.346-1.328H31.884V7.9a.89.89,0,0,0-.89-.9H25.455a10.323,10.323,0,0,0-7.013,2.766A10.323,10.323,0,0,0,11.43,7H5.891A.89.89,0,0,0,5,7.89v2.67H2.346A1.346,1.346,0,0,0,1,11.888V33.01A1.346,1.346,0,0,0,2.346,34.356ZM6.781,8.78H11.43a8.518,8.518,0,0,1,6.123,2.6h0V13.34a.89.89,0,0,0,1.78,0V11.382h0a8.518,8.518,0,0,1,6.123-2.6H30.1V28.557H25.455a10.3,10.3,0,0,0-6.123,2.022V27.144a.89.89,0,0,0-1.78,0v3.435a10.3,10.3,0,0,0-6.123-2.022H6.781Zm-4,3.56H5V29.461a.89.89,0,0,0,.89.89H11.43A8.518,8.518,0,0,1,17.777,33.2a.89.89,0,0,0,1.328,0,8.522,8.522,0,0,1,6.347-2.848h5.542a.89.89,0,0,0,.89-.89V12.339H34.1V32.594H25.7a6.973,6.973,0,0,0-5.272,2.356l-.028.032.648.612-.676-.58a2.681,2.681,0,0,1-.356.3l-.107.075a2.669,2.669,0,0,1-.331.189h0l-.05.025-.146.061a2.491,2.491,0,0,1-.271.082l-.146.036a2.673,2.673,0,0,1-.527.05h-.153a2.606,2.606,0,0,1-.356-.046.758.758,0,0,1-.206-.05,2.137,2.137,0,0,1-.217-.068l-.16-.068-.064-.032a2.674,2.674,0,0,1-.31-.178l-.125-.089a2.691,2.691,0,0,1-.317-.278l-.068-.075a7.08,7.08,0,0,0-5.286-2.374H2.78Z"/><path class="a" d="M38.035,38.538a.89.89,0,0,0,.89,0l7.991-4.628a.89.89,0,0,0,0-1.541l-7.991-4.585a.89.89,0,0,0-1.335.772v9.195A.89.89,0,0,0,38.035,38.538Zm1.335-8.454,5.322,3.072L39.37,36.228Z" transform="translate(-23.565 -13.309)"/></g></svg>