<?xml version="1.0" encoding="utf-8"?>
<!-- Generator: Adobe Illustrator 24.1.1, SVG Export Plug-In . SVG Version: 6.00 Build 0)  -->
<svg version="1.1"
	 id="Layer_1" xmlns:cc="http://creativecommons.org/ns#" xmlns:dc="http://purl.org/dc/elements/1.1/" xmlns:inkscape="http://www.inkscape.org/namespaces/inkscape" xmlns:rdf="http://www.w3.org/1999/02/22-rdf-syntax-ns#" xmlns:sodipodi="http://sodipodi.sourceforge.net/DTD/sodipodi-0.dtd" xmlns:svg="http://www.w3.org/2000/svg"
	 xmlns="http://www.w3.org/2000/svg" xmlns:xlink="http://www.w3.org/1999/xlink" x="0px" y="0px" viewBox="0 0 100 125"
	 style="enable-background:new 0 0 100 125;" xml:space="preserve">
<g transform="translate(0,-952.36218)">
	<path d="M24,955.4c-5.5,0-10,4.5-10,10v74c0,5.5,4.5,10,10,10h60c1.1,0,2-0.9,2-2v-74c0-1.1-0.9-2-2-2c-3.4,0-6-2.6-6-6s2.6-6,6-6
		c0.1,0,0.1,0,0.2,0c0.1,0,0.3,0,0.4-0.1c0.2-0.1,0.4-0.2,0.5-0.3c0.1-0.1,0.2-0.2,0.3-0.3c0,0,0.1-0.1,0.1-0.2
		c0-0.1,0.1-0.1,0.1-0.2c0.2-0.3,0.3-0.6,0.3-0.9c0-0.1,0-0.1,0-0.2c0-0.3-0.1-0.7-0.3-0.9c0-0.1-0.1-0.1-0.1-0.2
		c0-0.1-0.1-0.1-0.1-0.2c-0.1-0.1-0.2-0.2-0.3-0.3c-0.3-0.2-0.7-0.4-1.2-0.4H24z M24,959.4h52.2c-1.3,1.7-2.2,3.7-2.2,6
		c0,2.3,0.9,4.3,2.2,6H24c-3.1,0-5.6-2.3-5.9-5.2c0-0.1,0-0.2-0.1-0.3v-0.5C18,962,20.6,959.4,24,959.4z M18,973.2
		c1.7,1.3,3.7,2.2,6,2.2h4v24c0,1.1,0.9,2,2,2c0.4,0,0.7-0.1,1-0.3l9-5.4l9,5.4c0.9,0.6,2.2,0.3,2.7-0.7c0.2-0.3,0.3-0.7,0.3-1v-24
		h30v70H24c-3.4,0-6-2.6-6-6V973.2z M32,975.4h16v20.5l-7-4.2c-0.6-0.4-1.4-0.4-2.1,0l-7,4.2V975.4z"/>
</g>
</svg>
