<?xml version="1.0" encoding="utf-8"?>
<!-- Generator: Adobe Illustrator 23.1.0, SVG Export Plug-In . SVG Version: 6.00 Build 0)  -->
<svg version="1.1" id="Layer_1" xmlns="http://www.w3.org/2000/svg" xmlns:xlink="http://www.w3.org/1999/xlink" x="0px" y="0px"
	 viewBox="0 0 24 30" style="enable-background:new 0 0 24 30;" xml:space="preserve">
<style type="text/css">
	.st0{fill:none;}
	.st1{fill-rule:evenodd;clip-rule:evenodd;}
</style>
<g transform="matrix(1,0,0,1,-96,-192)">
	<g transform="matrix(1,0,0,1,96,192)">
		<rect y="0" class="st0" width="24" height="24"/>
		<g transform="matrix(1,0,0,1,-96,-192)">
			<path class="st1" d="M118.1,193c0.1,0,0.2,0,0.3,0.1c0.3,0.1,0.5,0.3,0.6,0.6c0,0.1,0.1,0.2,0.1,0.3v16c0,0.1,0,0.2-0.1,0.3
				c-0.1,0.3-0.3,0.5-0.6,0.6c-0.1,0-0.2,0.1-0.3,0.1h-7.7l-5.7,3.8l-0.1,0c-0.1,0.1-0.3,0.1-0.4,0.1c-0.4,0-0.8-0.2-1-0.6
				c-0.1-0.1-0.1-0.3-0.1-0.4v-3h-5l-0.1,0c-0.1,0-0.2,0-0.3-0.1c-0.3-0.1-0.5-0.4-0.5-0.6c0-0.1,0-0.2,0-0.3v-16
				c0-0.1,0-0.2,0.1-0.3c0.1-0.3,0.3-0.5,0.6-0.6c0.1,0,0.2-0.1,0.3-0.1C104.7,193,111.5,193,118.1,193z M99,195v14h5
				c0.1,0,0.2,0,0.3,0.1c0.3,0.1,0.5,0.3,0.6,0.6c0,0.1,0.1,0.2,0.1,0.3v2.1l4.4-3l0.1,0c0.1,0,0.2-0.1,0.2-0.1c0.1,0,0.2,0,0.2,0h7
				v-14H99z M111,198c0-0.3,0-0.7,0-1c0-0.1,0-0.2,0.1-0.3c0.1-0.3,0.3-0.5,0.5-0.6c0.1,0,0.2-0.1,0.3-0.1c0,0,0.1,0,0.1,0
				c0.1,0,0.2,0,0.3,0.1c0.3,0.1,0.5,0.3,0.6,0.6c0,0.1,0.1,0.2,0.1,0.3c0,0.3,0,0.7,0,1c0.7,0,1.4,0,2,0c0.1,0,0.3,0,0.4,0.1
				c0.1,0.1,0.2,0.1,0.3,0.2c0.1,0.1,0.1,0.2,0.2,0.3c0,0.1,0.1,0.2,0.1,0.3c0,0.4-0.2,0.7-0.5,0.9c-0.1,0.1-0.3,0.1-0.5,0.1l-0.1,0
				c0,0.1,0,0.3,0,0.4c0,0.2,0,0.3-0.1,0.5c-0.2,1.2-0.6,2.3-1.1,3.3c0.3,0.2,0.6,0.3,0.9,0.5c0.2,0.1,0.3,0.1,0.5,0.2
				c0.1,0,0.2,0.1,0.3,0.1c0,0,0,0,0.1,0c0.2,0.1,0.3,0.2,0.4,0.4c0.1,0.1,0.1,0.2,0.1,0.3c0.1,0.3,0,0.7-0.2,0.9
				c-0.1,0.1-0.1,0.1-0.2,0.2c-0.2,0.1-0.4,0.2-0.7,0.1c-0.1,0-0.2-0.1-0.4-0.1c-0.5-0.2-1-0.4-1.4-0.7c-0.2-0.1-0.3-0.2-0.5-0.3
				c-0.3,0.4-0.7,0.8-1,1.1c-0.3,0.3-0.7,0.5-1,0.8c0,0,0,0-0.1,0.1c-0.1,0.1-0.3,0.1-0.4,0.1c-0.1,0-0.3,0-0.4-0.1
				c-0.1,0-0.2-0.1-0.3-0.2c-0.3-0.3-0.4-0.7-0.3-1.1c0.1-0.2,0.2-0.3,0.3-0.4c0.1-0.1,0.2-0.1,0.3-0.2c0.2-0.2,0.5-0.4,0.7-0.6
				c0.2-0.2,0.4-0.4,0.6-0.6c-0.5-0.4-1-0.9-1.4-1.5c-0.2-0.2-0.3-0.4-0.4-0.7c-0.1-0.1-0.2-0.3-0.2-0.4c-0.1-0.3,0-0.7,0.3-0.9
				c0.1-0.1,0.2-0.1,0.2-0.2c0.1-0.1,0.3-0.1,0.4-0.1c0,0,0,0,0.1,0c0.1,0,0.1,0,0.2,0c0.2,0.1,0.5,0.2,0.6,0.4
				c0.1,0.1,0.1,0.2,0.2,0.3c0.3,0.5,0.7,0.9,1.1,1.3c0.3-0.6,0.5-1.3,0.7-2c0.1-0.3,0.1-0.7,0.2-1c-1.3,0-2.7,0-4,0
				c-0.2,0-0.3-0.1-0.5-0.1c-0.3-0.2-0.5-0.6-0.5-0.9c0-0.1,0-0.2,0.1-0.3c0-0.1,0.1-0.2,0.2-0.3c0.1-0.1,0.2-0.2,0.3-0.2
				c0.1-0.1,0.3-0.1,0.4-0.1C109.6,198,110.3,198,111,198z M104,198C104,198,104,198,104,198C104,198,104,198,104,198
				C104.1,198,104.1,198,104,198c0.2,0,0.3,0,0.3,0.1c0,0,0.1,0,0.1,0c0,0,0,0,0,0c0,0,0.1,0,0.1,0.1c0.1,0.1,0.2,0.1,0.2,0.2
				c0,0.1,0.1,0.1,0.1,0.2c1.1,2.3,2,4.7,3,7c0.1,0.2,0.1,0.3,0.1,0.5c0,0.4-0.3,0.7-0.6,0.8c-0.1,0-0.2,0.1-0.3,0.1
				c-0.1,0-0.2,0-0.4,0c-0.1,0-0.2-0.1-0.3-0.2c-0.1-0.1-0.2-0.2-0.3-0.4c-0.2-0.5-0.4-1-0.6-1.4c-1,0-2,0-2.9,0
				c-0.2,0.5-0.4,0.9-0.6,1.4c-0.1,0.2-0.2,0.3-0.3,0.4c-0.1,0.1-0.2,0.1-0.3,0.1c-0.3,0.1-0.7,0-1-0.2c-0.1-0.1-0.2-0.2-0.2-0.3
				c-0.1-0.1-0.1-0.2-0.1-0.3c0-0.2,0-0.3,0.1-0.5c0.9-2.4,2-4.7,3-7c0-0.1,0.1-0.1,0.1-0.2c0.1-0.1,0.1-0.2,0.2-0.2
				c0,0,0.1,0,0.1-0.1c0,0,0,0,0,0c0,0,0.1,0,0.1,0C103.7,198,103.8,198,104,198C103.9,198,103.9,198,104,198
				C103.9,198,103.9,198,104,198C103.9,198,104,198,104,198z M104,201.6c-0.2,0.5-0.4,0.9-0.6,1.4c0.4,0,0.8,0,1.2,0
				C104.4,202.5,104.2,202.1,104,201.6z"/>
		</g>
	</g>
</g>
</svg>
