<?xml version="1.0" encoding="utf-8"?>
<!-- Generator: Adobe Illustrator 24.1.1, SVG Export Plug-In . SVG Version: 6.00 Build 0)  -->
<svg version="1.1" id="Layer_1" xmlns="http://www.w3.org/2000/svg" xmlns:xlink="http://www.w3.org/1999/xlink" x="0px" y="0px"
	 viewBox="0 0 100 125" style="enable-background:new 0 0 100 125;" xml:space="preserve">
<path d="M92.5,5H55c-0.7,0-1.3,0.3-1.8,0.7L5.7,53.2c-1,1-1,2.6,0,3.5l37.5,37.5c0.5,0.5,1.1,0.7,1.8,0.7s1.3-0.2,1.8-0.7l47.5-47.5
	c0.5-0.5,0.7-1.1,0.7-1.8V7.5C95,6.1,93.9,5,92.5,5z M90,44L45,89L11,55l45-45h34V44z"/>
<path d="M77.5,30c4.1,0,7.5-3.4,7.5-7.5S81.6,15,77.5,15S70,18.4,70,22.5S73.4,30,77.5,30z M77.5,20c1.4,0,2.5,1.1,2.5,2.5
	S78.9,25,77.5,25S75,23.9,75,22.5S76.1,20,77.5,20z"/>
</svg>
